<svg viewBox=" 0 0 24 35 " width="24" height="35" xmlns="http://www.w3.org/2000/svg" fill="currentColor">
  <title>Layer 1</title>
  <path id="svg_1" d="m12,0a12,12 0 0 0 0,24l12,0l0,-12a12,12 0 0 0 -12,-12zm10,22l-10,0a10,10 0 1 1 10,-10l0,10z"/>
  <line stroke-linecap="null" stroke-linejoin="null" id="svg_5" y2="8.45424" x2="5.84804" y1="3.6013" x1="1.48529" stroke-opacity="null" stroke-width="null" stroke="null" fill="none"/>
  <path id="svg_19" d="m16.96773,6.4211c-1.05067,-0.98461 -2.18387,-1.77334 -3.11344,-1.88086c-0.05061,-0.00697 -0.10302,-0.01104 -0.15844,-0.01221l-6.11784,0c-0.0976,0 -0.19399,0.03662 -0.26267,0.10462c-0.06808,0.06626 -0.10844,0.15926 -0.10844,0.254l0,14.96671c0,0.09416 0.03795,0.18425 0.10844,0.25284c0.07049,0.06742 0.16326,0.10404 0.26267,0.10404l11.06333,0c0.0976,0 0.19098,-0.03604 0.26146,-0.10404c0.07049,-0.068 0.10965,-0.15809 0.10965,-0.25284l0,-9.9594c-0.02169,-1.15607 -0.9603,-2.41676 -2.0447,-3.47286zm1.30128,13.07248l-10.32111,0l0,-14.25063l5.74854,0l0,0.00116c0.25062,-0.01453 0.4669,0.22436 0.63257,0.77071c0.15061,0.5202 0.18857,1.1985 0.18796,1.66872c0.0012,0.34467 -0.01627,0.576 -0.01627,0.576l-0.02952,0.37896l0.3952,0.00407c0.00181,0 0.91331,0.01046 1.80734,0.20634c0.85909,0.17902 1.53082,0.5359 1.59347,0.93985c0.00241,0.03604 0.00301,0.07207 0.00241,0.10578l0,9.59904l-0.0006,0z"  stroke-width="null" stroke="currentColor" fill="currentColor"/>
</svg>